<svg version="1.1" id="Layer_1" xmlns="http://www.w3.org/2000/svg" xmlns:xlink="http://www.w3.org/1999/xlink" x="0px" y="0px"
	 width="100%" viewBox="0 0 5000 3750" enable-background="new 0 0 5000 3750" xml:space="preserve">
<path fill="#949494" opacity="1.000000" stroke="none" 
	d="
M3117.153564,1641.071777 
	C3117.084473,1661.976074 3117.015381,1682.880493 3116.449463,1706.822754 
	C3116.092041,1710.690063 3116.231201,1711.519653 3116.370117,1712.349243 
	C3116.416748,1800.198975 3116.448242,1888.048584 3116.512939,1975.898315 
	C3116.614990,2114.334473 3116.795898,2252.770508 3116.833252,2391.206543 
	C3116.855957,2475.065918 3116.660156,2558.925293 3116.582275,2642.784668 
	C3116.512451,2717.990234 3116.469727,2793.195801 3114.895996,2870.077637 
	C3111.938721,2871.780273 3110.500732,2871.806152 3108.558594,2870.027588 
	C3107.936035,2864.895264 3107.714600,2861.567627 3107.714355,2858.239746 
	C3107.706055,2697.054199 3107.715088,2535.868652 3107.724854,2374.683105 
	C3107.739014,2140.231689 3107.772949,1905.780396 3107.766113,1671.328979 
	C3107.758545,1414.231323 3107.705811,1157.133667 3107.725586,900.036072 
	C3107.726074,892.064209 3108.314209,884.092346 3109.868652,876.142761 
	C3112.762451,876.113159 3114.415527,876.061279 3116.068848,876.009338 
	C3116.326416,884.648315 3116.805908,893.287292 3116.809326,901.926331 
	C3116.873291,1059.715454 3116.880127,1217.504517 3116.920898,1378.855591 
	C3116.804443,1387.103027 3116.666260,1391.788452 3116.323975,1398.306152 
	C3116.022949,1448.044556 3115.846436,1495.950684 3115.859863,1543.856934 
	C3115.867920,1571.797729 3116.180176,1599.738647 3116.217773,1629.362305 
	C3116.437744,1634.387329 3116.795654,1637.729492 3117.153564,1641.071777 
z"/>
<path fill="#868686" opacity="1.000000" stroke="none" 
	d="
M1900.036743,1464.004028 
	C1900.281616,1451.854736 1900.526489,1439.705444 1901.413086,1424.734863 
	C1903.035889,1417.824829 1902.913574,1414.131592 1898.493164,1411.979370 
	C1898.493164,1411.979370 1898.447266,1410.536133 1899.452881,1408.065918 
	C1901.160522,1385.139038 1902.337891,1364.685059 1902.452515,1344.225098 
	C1902.622925,1313.824585 1902.041382,1283.419678 1902.203369,1251.477051 
	C1903.484253,1243.703979 1903.820068,1237.547119 1900.000488,1231.998535 
	C1900.268311,1210.549194 1900.536011,1189.099976 1901.530029,1164.300049 
	C1902.470337,1129.831787 1902.738525,1098.714355 1902.796143,1067.596313 
	C1902.800903,1065.085205 1901.359741,1062.571533 1900.590332,1060.058960 
	C1900.637817,1000.111755 1900.685425,940.164612 1902.332520,878.283997 
	C1905.972168,876.121460 1908.012085,875.892273 1910.093750,877.564331 
	C1910.156982,953.422058 1910.218140,1027.378540 1910.192017,1101.334961 
	C1910.143921,1237.919678 1909.985107,1374.504272 1909.982056,1511.088989 
	C1909.978149,1681.654175 1910.101074,1852.219238 1910.138306,2022.784424 
	C1910.165527,2147.375732 1910.141479,2271.967041 1910.142334,2396.558350 
	C1910.143066,2505.159912 1910.189697,2613.761230 1910.129883,2722.362793 
	C1910.102417,2772.330811 1909.868530,2822.299072 1908.307129,2872.119629 
	C1904.995239,2871.746338 1903.104492,2871.520752 1901.213623,2871.294922 
	C1901.118164,2797.316650 1900.972046,2723.338135 1900.937866,2649.359863 
	C1900.869751,2502.066650 1900.827881,2354.773193 1900.840088,2207.479980 
	C1900.855103,2024.861694 1900.936157,1842.243286 1901.724487,1656.270264 
	C1902.774048,1650.947388 1903.359253,1648.979492 1903.361816,1647.010986 
	C1903.432617,1591.108887 1903.533813,1535.206543 1903.317017,1479.305420 
	C1903.297241,1474.200806 1901.179932,1469.104248 1900.036743,1464.004028 
z"/>
<path fill="#4D4E4D" opacity="1.000000" stroke="none" 
	d="
M3064.239502,3080.230713 
	C3038.825439,3112.634033 3004.365479,3130.438721 2965.237305,3139.385010 
	C2948.523438,3143.206299 2930.985107,3144.656006 2913.788818,3144.900879 
	C2860.565918,3145.658691 2807.327148,3145.375244 2754.094727,3145.392334 
	C2683.559570,3145.415039 2613.023926,3145.459717 2542.489014,3145.272705 
	C2472.627441,3145.087646 2402.766357,3144.491943 2332.904785,3144.332031 
	C2282.338379,3144.216553 2231.746338,3143.605713 2181.212646,3144.961426 
	C2148.577637,3145.836426 2116.035645,3145.550537 2083.509521,3143.773682 
	C2048.893066,3141.882568 2017.084473,3130.932373 1988.512573,3109.328125 
	C1989.732178,3106.235840 1990.872437,3105.013916 1993.419067,3104.015625 
	C1996.632568,3105.083008 1998.542725,3105.759277 2000.232056,3106.795654 
	C2033.560059,3127.245850 2069.965576,3135.656738 2108.815186,3135.205322 
	C2138.061279,3134.865234 2167.313965,3135.099121 2196.563721,3135.103760 
	C2387.579834,3135.134033 2578.596191,3135.181641 2769.612305,3135.200439 
	C2819.529541,3135.205322 2869.453125,3135.619141 2919.361816,3134.947998 
	C2967.110107,3134.306152 3009.164795,3118.193115 3044.608643,3085.657715 
	C3048.944336,3081.677734 3054.003906,3078.486084 3059.492676,3075.973145 
	C3061.584717,3078.088135 3062.912109,3079.159424 3064.239502,3080.230713 
z"/>
<path fill="#5B5757" opacity="1.000000" stroke="none" 
	d="
M2871.685059,612.526672 
	C2887.471191,612.034241 2903.255127,611.454651 2919.043945,611.068787 
	C2945.088135,610.432251 2970.052002,615.436584 2994.296631,627.077148 
	C2994.389404,629.867432 2993.396729,632.000671 2994.023193,632.715332 
	C2997.245850,636.393311 3000.884033,639.706970 3002.865234,643.208069 
	C2998.185547,642.274231 2994.910156,641.534973 2991.867188,640.246216 
	C2965.103271,628.910889 2937.214111,623.861511 2908.168945,624.455627 
	C2890.880371,624.809265 2873.579102,624.511780 2856.283447,624.513184 
	C2754.479736,624.521790 2652.676270,624.539612 2550.872559,624.540039 
	C2403.822754,624.540588 2256.772949,624.618103 2109.723145,624.435974 
	C2084.856689,624.405212 2060.668213,627.562073 2037.088013,635.531494 
	C2032.754883,636.995972 2028.087036,637.469543 2023.957275,637.167847 
	C2028.127686,629.093384 2035.489258,628.137634 2041.761230,625.432922 
	C2044.748169,624.144958 2047.771606,623.103943 2047.234741,618.940857 
	C2049.326172,617.912659 2051.417480,616.884460 2055.503418,616.828613 
	C2060.985840,618.402161 2064.473633,619.003357 2067.961426,619.604492 
	C2068.096680,618.915466 2068.231934,618.226379 2068.367188,617.537354 
	C2065.501465,616.880005 2062.635498,616.222656 2059.769775,615.565308 
	C2066.804199,614.272583 2073.838623,612.979919 2083.787109,612.898071 
	C2095.292236,614.753540 2103.882812,615.955994 2112.474121,615.960876 
	C2305.791748,616.070740 2499.109375,616.041626 2692.427002,616.057190 
	C2744.422852,616.061401 2796.418457,616.187012 2848.414307,616.097229 
	C2856.285889,616.083679 2864.524414,617.555298 2871.685059,612.526672 
z"/>
<path fill="#7D7E7E" opacity="1.000000" stroke="none" 
	d="
M2045.724854,619.137512 
	C2047.771606,623.103943 2044.748169,624.144958 2041.761230,625.432922 
	C2035.489258,628.137634 2028.127686,629.093384 2022.747192,637.906860 
	C2019.401855,640.837219 2017.656738,641.807556 2015.898193,642.753052 
	C1947.008545,679.790894 1911.562134,737.185486 1910.652710,815.615295 
	C1910.498413,828.920776 1910.288330,842.225647 1908.983398,855.370056 
	C1905.604370,855.277039 1903.345703,855.344727 1901.087158,855.412354 
	C1901.163818,834.873901 1899.773438,814.205811 1901.576172,793.819946 
	C1908.651978,713.798950 1951.020142,658.794617 2023.530640,626.121704 
	C2030.109253,623.157410 2037.305420,621.564148 2045.724854,619.137512 
z"/>
<path fill="#868686" opacity="1.000000" stroke="none" 
	d="
M2869.849609,612.236877 
	C2864.524414,617.555298 2856.285889,616.083679 2848.414307,616.097229 
	C2796.418457,616.187012 2744.422852,616.061401 2692.427002,616.057190 
	C2499.109375,616.041626 2305.791748,616.070740 2112.474121,615.960876 
	C2103.882812,615.955994 2095.292236,614.753540 2085.340332,613.146851 
	C2145.822021,612.051392 2207.664307,611.825623 2269.506592,611.801758 
	C2461.030518,611.727905 2652.554199,611.727844 2844.078125,611.714294 
	C2852.056885,611.713745 2860.035645,611.866028 2869.849609,612.236877 
z"/>
<path fill="#7D7E7E" opacity="1.000000" stroke="none" 
	d="
M3004.377197,643.147888 
	C3000.884033,639.706970 2997.245850,636.393311 2994.023193,632.715332 
	C2993.396729,632.000671 2994.389404,629.867432 2995.428711,627.991943 
	C3061.919922,656.744080 3101.929199,706.881531 3114.353271,777.329407 
	C3118.576416,801.274109 3116.473633,826.347412 3117.078369,850.909424 
	C3117.257812,858.205261 3116.813232,865.516418 3116.361816,874.414917 
	C3114.415527,876.061279 3112.762451,876.113159 3109.541504,874.285278 
	C3107.623535,850.487732 3107.558350,828.560852 3106.859131,806.654236 
	C3105.640625,768.483887 3094.285156,733.625916 3072.045654,702.376709 
	C3059.588867,684.872925 3044.450684,670.113342 3026.878418,655.920898 
	C3023.463867,650.787415 3019.726074,648.653015 3013.659668,648.520020 
	C3009.814941,646.458923 3007.095947,644.803406 3004.377197,643.147888 
z"/>
<path fill="#4D4E4D" opacity="1.000000" stroke="none" 
	d="
M1898.550049,1464.550293 
	C1901.179932,1469.104248 1903.297241,1474.200806 1903.317017,1479.305420 
	C1903.533813,1535.206543 1903.432617,1591.108887 1903.361816,1647.010986 
	C1903.359253,1648.979492 1902.774048,1650.947388 1901.766602,1654.387573 
	C1894.146484,1649.609985 1892.090332,1641.611206 1892.106812,1632.569214 
	C1892.198730,1582.212524 1892.094727,1531.855347 1892.173462,1481.498535 
	C1892.182617,1475.652588 1891.426147,1469.361694 1898.550049,1464.550293 
z"/>
<path fill="#7D7E7E" opacity="1.000000" stroke="none" 
	d="
M3065.233398,3079.388184 
	C3062.912109,3079.159424 3061.584717,3078.088135 3060.292969,3074.909424 
	C3093.021973,3034.271729 3108.135742,2989.733643 3107.246826,2939.241211 
	C3106.851562,2916.789307 3108.397705,2894.302734 3109.062744,2871.832031 
	C3110.500732,2871.806152 3111.938721,2871.780273 3114.447266,2871.909424 
	C3116.037598,2897.120850 3116.792480,2922.174805 3117.022461,2947.233643 
	C3117.377930,2985.935059 3106.264893,3021.355713 3083.793945,3055.216797 
	C3080.708252,3057.329102 3080.236084,3058.470947 3080.627197,3059.969482 
	C3075.827148,3066.161377 3071.027344,3072.353271 3065.233398,3079.388184 
z"/>
<path fill="#5B5757" opacity="1.000000" stroke="none" 
	d="
M1992.012695,3103.791992 
	C1990.872437,3105.013916 1989.732178,3106.235840 1987.654541,3108.292969 
	C1946.278442,3083.544189 1921.272583,3046.582275 1907.704102,3001.357178 
	C1905.441040,2993.814697 1904.536865,2985.864502 1904.344971,2976.799805 
	C1907.839478,2975.694580 1909.993896,2975.892578 1912.894043,2977.358643 
	C1914.903198,2983.082764 1916.386597,2987.489746 1917.394165,2992.002930 
	C1924.194336,3022.466553 1938.760742,3049.020020 1959.220337,3072.182129 
	C1969.239258,3083.524170 1981.026001,3093.304443 1992.012695,3103.791992 
z"/>
<path fill="#4D4E4D" opacity="1.000000" stroke="none" 
	d="
M1899.224609,1060.903564 
	C1901.359741,1062.571533 1902.800903,1065.085205 1902.796143,1067.596313 
	C1902.738525,1098.714355 1902.470337,1129.831787 1901.563477,1162.423584 
	C1894.138062,1156.775635 1892.016724,1148.166870 1892.102783,1138.579102 
	C1892.285278,1118.234497 1892.105225,1097.886841 1892.159546,1077.540771 
	C1892.175293,1071.647583 1891.866943,1065.532227 1899.224609,1060.903564 
z"/>
<path fill="#5B5757" opacity="1.000000" stroke="none" 
	d="
M3118.532715,1640.240234 
	C3116.795654,1637.729492 3116.437744,1634.387329 3117.104492,1627.988281 
	C3118.822510,1619.701660 3120.111816,1614.472534 3120.118652,1609.241943 
	C3120.202393,1544.756836 3120.197754,1480.270752 3119.890869,1415.786621 
	C3119.860352,1409.343750 3117.699951,1402.911255 3116.528320,1396.473877 
	C3116.666260,1391.788452 3116.804443,1387.103027 3117.062744,1380.655518 
	C3120.653809,1379.634766 3123.559082,1381.287842 3124.020752,1385.058716 
	C3124.584717,1389.666870 3124.859619,1394.339111 3124.856934,1398.983521 
	C3124.813965,1472.217163 3124.742676,1545.450806 3124.555664,1618.684204 
	C3124.537598,1625.847290 3125.937744,1633.512085 3118.532715,1640.240234 
z"/>
<path fill="#373838" opacity="1.000000" stroke="none" 
	d="
M1901.779785,1253.016602 
	C1902.041382,1283.419678 1902.622925,1313.824585 1902.452515,1344.225098 
	C1902.337891,1364.685059 1901.160522,1385.139038 1899.475830,1407.344360 
	C1898.492920,1409.093018 1897.864868,1409.180542 1897.242676,1407.033081 
	C1896.302002,1400.296753 1895.715698,1395.708252 1895.706909,1391.118774 
	C1895.632568,1352.288818 1895.640625,1313.458862 1895.693115,1274.628784 
	C1895.699341,1270.034180 1895.521973,1265.298462 1896.562988,1260.895996 
	C1897.243286,1258.019165 1899.969849,1255.626343 1901.779785,1253.016602 
z"/>
<path fill="#4D4E4D" opacity="1.000000" stroke="none" 
	d="
M1902.203369,1251.476929 
	C1899.969849,1255.626343 1897.243286,1258.019165 1896.562988,1260.895996 
	C1895.521973,1265.298462 1895.699341,1270.034180 1895.693115,1274.628784 
	C1895.640625,1313.458862 1895.632568,1352.288818 1895.706909,1391.118774 
	C1895.715698,1395.708252 1896.302002,1400.296753 1897.180664,1406.722168 
	C1896.138428,1406.588501 1893.594971,1404.815552 1893.131714,1402.606445 
	C1892.191772,1398.124268 1892.141846,1393.406494 1892.135376,1388.785278 
	C1892.072266,1343.723633 1892.001831,1298.661621 1892.187866,1253.600708 
	C1892.216797,1246.584839 1890.224365,1238.758301 1898.558105,1232.634766 
	C1903.820068,1237.547119 1903.484253,1243.703979 1902.203369,1251.476929 
z"/>
<path fill="#868686" opacity="1.000000" stroke="none" 
	d="
M1912.148193,2976.090576 
	C1909.993896,2975.892578 1907.839478,2975.694580 1904.623779,2975.280273 
	C1899.447021,2948.941650 1901.489380,2922.626709 1902.592041,2894.399414 
	C1905.966064,2892.204590 1907.848389,2891.998291 1909.821289,2893.677734 
	C1910.657349,2922.405518 1911.402710,2949.248047 1912.148193,2976.090576 
z"/>
<path fill="#4D4E4D" opacity="1.000000" stroke="none" 
	d="
M1900.529785,857.115295 
	C1903.345703,855.344727 1905.604370,855.277039 1909.654297,856.730591 
	C1912.671875,864.190857 1913.226929,870.076294 1910.052124,875.663086 
	C1908.012085,875.892273 1905.972168,876.121460 1902.395142,876.444458 
	C1900.562866,870.631592 1900.267578,864.724915 1900.529785,857.115295 
z"/>
<path fill="#4D4E4D" opacity="1.000000" stroke="none" 
	d="
M1909.730591,2891.792236 
	C1907.848389,2891.998291 1905.966064,2892.204590 1902.673584,2892.574219 
	C1900.872559,2886.746338 1900.481567,2880.755127 1900.652100,2873.029297 
	C1903.104492,2871.520752 1904.995239,2871.746338 1909.041748,2873.181641 
	C1912.756836,2880.364502 1913.463379,2886.265381 1909.730591,2891.792236 
z"/>
<path fill="#4D4E4D" opacity="1.000000" stroke="none" 
	d="
M1897.612061,1412.783691 
	C1902.913574,1414.131592 1903.035889,1417.824829 1901.436646,1422.911987 
	C1897.912842,1421.080566 1895.084473,1418.220215 1897.612061,1412.783691 
z"/>
<path fill="#7D7E7E" opacity="1.000000" stroke="none" 
	d="
M2058.790527,615.605225 
	C2062.635498,616.222656 2065.501465,616.880005 2068.367188,617.537354 
	C2068.231934,618.226379 2068.096680,618.915466 2067.961426,619.604492 
	C2064.473633,619.003357 2060.985840,618.402161 2056.699707,616.942871 
	C2055.901367,616.084778 2057.811279,615.645203 2058.790527,615.605225 
z"/>
<path fill="#080A08" opacity="1.000000" stroke="none" 
	d="
M3081.247559,3059.398438 
	C3080.236084,3058.470947 3080.708252,3057.329102 3083.019287,3056.384033 
	C3083.389160,3057.175537 3082.679932,3058.043701 3081.247559,3059.398438 
z"/>
<path fill="#5B5757" opacity="1.000000" stroke="none" 
	d="
M3116.823730,1711.827271 
	C3116.231201,1711.519653 3116.092041,1710.690063 3116.316406,1708.652100 
	C3116.970215,1708.279663 3117.332031,1709.099976 3117.519043,1709.958252 
	C3117.608887,1710.370117 3117.368164,1710.854004 3116.823730,1711.827271 
z"/>
<path fill="#080A08" opacity="1.000000" stroke="none" 
	d="
M1909.821289,2893.677734 
	C1913.463379,2886.265381 1912.756836,2880.364502 1910.462769,2873.329346 
	C1909.868530,2822.299072 1910.102417,2772.330811 1910.129883,2722.362793 
	C1910.189697,2613.761230 1910.143066,2505.159912 1910.142334,2396.558350 
	C1910.141479,2271.967041 1910.165527,2147.375732 1910.138306,2022.784424 
	C1910.101074,1852.219238 1909.978149,1681.654175 1909.982056,1511.088989 
	C1909.985107,1374.504272 1910.143921,1237.919678 1910.192017,1101.334961 
	C1910.218140,1027.378540 1910.156982,953.422058 1910.093750,877.564392 
	C1913.226929,870.076294 1912.671875,864.190857 1910.774902,856.891235 
	C1910.288330,842.225647 1910.498413,828.920776 1910.652710,815.615295 
	C1911.562134,737.185486 1947.008545,679.790894 2015.898193,642.753052 
	C2017.656738,641.807556 2019.401855,640.837219 2022.363525,639.139526 
	C2028.087036,637.469543 2032.754883,636.995972 2037.088013,635.531494 
	C2060.668213,627.562073 2084.856689,624.405212 2109.723145,624.435974 
	C2256.772949,624.618103 2403.822754,624.540588 2550.872559,624.540039 
	C2652.676270,624.539612 2754.479736,624.521790 2856.283447,624.513184 
	C2873.579102,624.511780 2890.880371,624.809265 2908.168945,624.455627 
	C2937.214111,623.861511 2965.103271,628.910889 2991.867188,640.246216 
	C2994.910156,641.534973 2998.185547,642.274231 3002.865234,643.208130 
	C3007.095947,644.803406 3009.814941,646.458923 3014.267822,649.695679 
	C3019.813965,653.235840 3023.625732,655.194763 3027.437744,657.153748 
	C3044.450684,670.113342 3059.588867,684.872925 3072.045654,702.376709 
	C3094.285156,733.625916 3105.640625,768.483887 3106.859131,806.654236 
	C3107.558350,828.560852 3107.623535,850.487732 3108.301270,874.262939 
	C3108.314209,884.092346 3107.726074,892.064209 3107.725586,900.036072 
	C3107.705811,1157.133667 3107.758545,1414.231323 3107.766113,1671.328979 
	C3107.772949,1905.780396 3107.739014,2140.231689 3107.724854,2374.683105 
	C3107.715088,2535.868652 3107.706055,2697.054199 3107.714355,2858.239746 
	C3107.714600,2861.567627 3107.936035,2864.895264 3108.558594,2870.027588 
	C3108.397705,2894.302734 3106.851562,2916.789307 3107.246826,2939.241211 
	C3108.135742,2989.733643 3093.021973,3034.271729 3059.528320,3073.865723 
	C3054.003906,3078.486084 3048.944336,3081.677734 3044.608643,3085.657715 
	C3009.164795,3118.193115 2967.110107,3134.306152 2919.361816,3134.947998 
	C2869.453125,3135.619141 2819.529541,3135.205322 2769.612305,3135.200439 
	C2578.596191,3135.181641 2387.579834,3135.134033 2196.563721,3135.103760 
	C2167.313965,3135.099121 2138.061279,3134.865234 2108.815186,3135.205322 
	C2069.965576,3135.656738 2033.560059,3127.245850 2000.232056,3106.795654 
	C1998.542725,3105.759277 1996.632568,3105.083008 1993.418945,3104.015381 
	C1981.026001,3093.304443 1969.239258,3083.524170 1959.220337,3072.182129 
	C1938.760742,3049.020020 1924.194336,3022.466553 1917.394165,2992.002930 
	C1916.386597,2987.489746 1914.903198,2983.082764 1912.894043,2977.358643 
	C1911.402710,2949.248047 1910.657349,2922.405518 1909.821289,2893.677734 
M1940.720459,1649.999756 
	C1940.718872,2072.575439 1940.716187,2495.151367 1940.721680,2917.727051 
	C1940.721802,2929.724121 1940.459351,2941.734375 1940.911987,2953.716064 
	C1943.524170,3022.844482 1989.218628,3081.904785 2055.308838,3101.980469 
	C2073.382812,3107.470947 2091.880615,3108.527344 2110.636719,3108.520264 
	C2377.246094,3108.420654 2643.855225,3108.451660 2910.464600,3108.447754 
	C2915.130127,3108.447754 2919.797852,3108.485596 2924.461182,3108.372314 
	C2998.147949,3106.582764 3061.474854,3053.260498 3076.441650,2981.103760 
	C3080.010010,2963.899414 3079.889893,2946.686279 3079.890381,2929.382568 
	C3079.912354,2229.533203 3079.908936,1529.683838 3079.906006,829.834412 
	C3079.906006,823.169250 3079.949463,816.502747 3079.838867,809.839111 
	C3078.679932,740.032288 3033.192627,679.782410 2966.365967,659.017090 
	C2948.291260,653.400696 2929.890381,651.960938 2911.125244,651.966919 
	C2643.849365,652.051758 2376.573730,652.024475 2109.297852,652.026733 
	C2105.298828,652.026733 2101.298096,651.996399 2097.300781,652.086243 
	C2021.104614,653.798462 1956.256226,709.326416 1943.631470,784.391113 
	C1941.326782,798.094849 1940.846436,812.236023 1940.838501,826.176025 
	C1940.683105,1099.450439 1940.722168,1372.724976 1940.720459,1649.999756 
z"/>
<path fill="#373838" opacity="1.000000" stroke="none" 
	d="
M3116.323730,1398.306152 
	C3117.699951,1402.911255 3119.860352,1409.343750 3119.890869,1415.786621 
	C3120.197754,1480.270752 3120.202393,1544.756836 3120.118652,1609.241943 
	C3120.111816,1614.472534 3118.822510,1619.701660 3117.242188,1626.305420 
	C3116.180176,1599.738647 3115.867920,1571.797729 3115.859863,1543.856934 
	C3115.846436,1495.950684 3116.022949,1448.044556 3116.323730,1398.306152 
z"/>
<path fill="#5B5757" opacity="1.000000" stroke="none" 
	d="
M3026.878418,655.920898 
	C3023.625732,655.194763 3019.813965,653.235840 3015.394043,650.101196 
	C3019.726074,648.653015 3023.463867,650.787415 3026.878418,655.920898 
z"/>
<path fill="#63D378" opacity="1.000000" stroke="none" 
	d="
M1940.721069,1647.999634 
	C1940.722168,1372.724976 1940.683105,1099.450439 1940.838501,826.176025 
	C1940.846436,812.236023 1941.326782,798.094849 1943.631470,784.391113 
	C1956.256226,709.326416 2021.104614,653.798462 2097.300781,652.086243 
	C2101.298096,651.996399 2105.298828,652.026733 2109.297852,652.026733 
	C2376.573730,652.024475 2643.849365,652.051758 2911.125244,651.966919 
	C2929.890381,651.960938 2948.291260,653.400696 2966.365967,659.017090 
	C3033.192627,679.782410 3078.679932,740.032288 3079.838867,809.839111 
	C3079.949463,816.502747 3079.906006,823.169250 3079.906006,829.834412 
	C3079.908936,1529.683838 3079.912354,2229.533203 3079.890381,2929.382568 
	C3079.889893,2946.686279 3080.010010,2963.899414 3076.441650,2981.103760 
	C3061.474854,3053.260498 2998.147949,3106.582764 2924.461182,3108.372314 
	C2919.797852,3108.485596 2915.130127,3108.447754 2910.464600,3108.447754 
	C2643.855225,3108.451660 2377.246094,3108.420654 2110.636719,3108.520264 
	C2091.880615,3108.527344 2073.382812,3107.470947 2055.308838,3101.980469 
	C1989.218628,3081.904785 1943.524170,3022.844482 1940.911987,2953.716064 
	C1940.459351,2941.734375 1940.721802,2929.724121 1940.721680,2917.727051 
	C1940.716187,2495.151367 1940.718872,2072.575439 1940.721069,1647.999634 
M2533.997803,789.666199 
	C2561.296875,789.675720 2588.595703,789.727539 2615.894775,789.661621 
	C2621.877930,789.647156 2627.910400,789.623779 2633.833740,788.898315 
	C2655.981201,786.185974 2672.917969,768.994080 2675.553955,746.936218 
	C2678.108398,725.561157 2664.867432,703.733948 2644.145020,696.653870 
	C2637.352783,694.333252 2629.817139,693.235962 2622.615967,693.212769 
	C2548.043945,692.972229 2473.470947,693.018250 2398.898438,693.158325 
	C2392.971191,693.169434 2386.876953,693.818848 2381.150879,695.296875 
	C2358.752197,701.078491 2343.497070,721.800720 2345.071289,744.213623 
	C2346.986816,771.488464 2368.729492,788.369019 2388.194092,789.111511 
	C2394.178223,789.339783 2400.166748,789.589539 2406.153564,789.597900 
	C2447.434814,789.655457 2488.716309,789.651733 2533.997803,789.666199 
z"/>
<path fill="#030402" opacity="1.000000" stroke="none" 
	d="
M2531.997559,789.666992 
	C2488.716309,789.651733 2447.434814,789.655457 2406.153564,789.597900 
	C2400.166748,789.589539 2394.178223,789.339783 2388.194092,789.111511 
	C2368.729492,788.369019 2346.986816,771.488464 2345.071289,744.213623 
	C2343.497070,721.800720 2358.752197,701.078491 2381.150879,695.296875 
	C2386.876953,693.818848 2392.971191,693.169434 2398.898438,693.158325 
	C2473.470947,693.018250 2548.043945,692.972229 2622.615967,693.212769 
	C2629.817139,693.235962 2637.352783,694.333252 2644.145020,696.653870 
	C2664.867432,703.733948 2678.108398,725.561157 2675.553955,746.936218 
	C2672.917969,768.994080 2655.981201,786.185974 2633.833740,788.898315 
	C2627.910400,789.623779 2621.877930,789.647156 2615.894775,789.661621 
	C2588.595703,789.727539 2561.296875,789.675720 2531.997559,789.666992 
z"/>
</svg>